<?xml version="1.0" encoding="utf-8"?>
<!-- Generator: Adobe Illustrator 14.0.0, SVG Export Plug-In . SVG Version: 6.00 Build 43363)  -->
<!DOCTYPE svg PUBLIC "-//W3C//DTD SVG 1.1//EN" "http://www.w3.org/Graphics/SVG/1.1/DTD/svg11.dtd">
<svg version="1.1" id="Layer_1" xmlns="http://www.w3.org/2000/svg" xmlns:xlink="http://www.w3.org/1999/xlink" x="0px" y="0px"
	 width="659px" height="209.039px" viewBox="0 0 659 209.039" enable-background="new 0 0 659 209.039" xml:space="preserve">
<g>
	<path fill="#0160A8" d="M289.143,111.441c0-2.906-0.326-5.967-0.975-9.182c-0.651-3.213-1.894-6.157-3.73-8.837
		c-1.836-2.677-4.401-4.895-7.689-6.656c-3.291-1.759-7.575-2.64-12.854-2.64c-5.279,0-9.967,1.053-14.059,3.157
		c-4.094,2.105-7.537,4.877-10.329,8.32c-2.794,3.443-4.917,7.345-6.369,11.707c-1.455,4.359-2.181,8.836-2.181,13.428
		c0,4.055,0.649,7.67,1.951,10.844c1.3,3.178,3.099,5.895,5.394,8.148c2.295,2.258,5.03,3.98,8.206,5.166
		c3.174,1.184,6.637,1.779,10.386,1.779c7.191,0,13.236-1.59,18.133-4.764c4.896-3.174,8.378-8.244,10.444-15.207h-13.083
		c-0.918,3.213-2.64,5.623-5.165,7.23c-2.525,1.605-5.548,2.41-9.066,2.41c-5.05,0-8.665-1.264-10.846-3.787
		c-2.18-2.525-3.271-5.854-3.271-9.984v-1.836c0-0.305,0.018-0.613,0.058-0.92c0.037-0.303,0.095-0.648,0.172-1.031h44.185
		c0.152-0.994,0.305-2.104,0.459-3.33C289.066,114.234,289.143,112.896,289.143,111.441L289.143,111.441z M276.06,109.203
		c0,0.27-0.039,0.594-0.115,0.977h-30.413c1.3-4.59,3.404-8.359,6.313-11.305c2.906-2.945,6.808-4.419,11.706-4.419
		c3.902,0,6.961,1.13,9.181,3.386c2.218,2.258,3.328,5.147,3.328,8.666v1.836C276.06,108.65,276.06,108.936,276.06,109.203
		L276.06,109.203z"/>
	<path fill="#0160A8" d="M389.269,109.146c0-3.443-0.401-6.657-1.205-9.641c-0.803-2.984-2.104-5.566-3.901-7.747
		c-1.799-2.18-4.074-3.902-6.829-5.164c-2.754-1.263-6.082-1.894-9.984-1.894c-2.45,0-4.802,0.345-7.058,1.033
		c-2.258,0.689-4.361,1.607-6.313,2.755c-1.951,1.147-3.673,2.506-5.165,4.074c-1.491,1.569-2.696,3.233-3.614,4.992h-0.23
		l7.46-34.43h-4.361l-17.443,81.943h4.36l3.328-15.264h0.23c1.3,5.049,3.71,9.086,7.229,12.107
		c3.519,3.023,7.843,4.533,12.969,4.533c4.896,0,9.238-1.129,13.025-3.385c3.788-2.256,6.981-5.166,9.583-8.725
		c2.601-3.557,4.571-7.553,5.911-11.992C388.598,117.908,389.269,113.508,389.269,109.146L389.269,109.146z M384.908,109.031
		c0,3.598-0.536,7.385-1.607,11.361c-1.072,3.98-2.697,7.615-4.877,10.902c-2.181,3.291-4.878,6.01-8.091,8.15
		c-3.214,2.143-7.001,3.213-11.362,3.213c-2.909,0-5.491-0.611-7.747-1.836c-2.258-1.223-4.171-2.813-5.738-4.764
		c-1.568-1.951-2.773-4.131-3.614-6.541c-0.844-2.41-1.264-4.762-1.264-7.059c0-3.443,0.555-7.133,1.664-11.074
		c1.109-3.939,2.755-7.613,4.936-11.018c2.181-3.404,4.916-6.235,8.206-8.493c3.289-2.256,7.075-3.385,11.361-3.385
		c3.06,0,5.72,0.516,7.977,1.549c2.256,1.033,4.132,2.467,5.624,4.304c1.492,1.836,2.62,3.998,3.385,6.484
		C384.523,103.313,384.908,106.049,384.908,109.031L384.908,109.031z"/>
	<path fill="#0160A8" d="M389.09,145.068h4.361l5.164-23.871c0.688-2.984,1.606-6.35,2.755-10.1
		c1.146-3.748,2.715-7.249,4.705-10.502c1.988-3.251,4.456-5.985,7.401-8.205c2.945-2.219,6.561-3.329,10.846-3.329
		c1.224,0,2.41,0.155,3.559,0.459l1.262-4.59c-0.613-0.076-1.225-0.133-1.836-0.172c-0.613-0.038-1.225-0.058-1.836-0.058
		c-5.28,0-9.775,1.474-13.485,4.419c-3.712,2.946-6.639,6.638-8.779,11.075h-0.23l3.214-14.117h-4.36L389.09,145.068L389.09,145.068
		z"/>
	<path fill="#0160A8" d="M472.138,98.703c0-2.984-0.67-5.375-2.008-7.173c-1.34-1.797-2.966-3.214-4.878-4.246
		c-1.913-1.033-3.921-1.722-6.025-2.066c-2.104-0.345-3.884-0.517-5.337-0.517c-6.656,0-12.165,1.417-16.525,4.247
		c-4.361,2.831-7.308,7.536-8.838,14.116h4.477c1.3-5.05,3.633-8.74,7.001-11.075c3.366-2.333,7.688-3.5,12.968-3.5
		c5.355,0,9.162,1.09,11.42,3.27c2.255,2.181,3.386,5.107,3.386,8.78c0,2.22-0.364,4.056-1.091,5.51
		c-0.728,1.453-1.933,2.619-3.614,3.5c-1.685,0.881-3.902,1.531-6.657,1.949c-2.754,0.422-6.197,0.709-10.329,0.861
		c-3.367,0.078-6.6,0.365-9.697,0.861c-3.099,0.498-5.853,1.396-8.263,2.697c-2.411,1.301-4.344,3.139-5.796,5.508
		c-1.453,2.373-2.182,5.434-2.182,9.182c0,2.908,0.479,5.357,1.436,7.346c0.956,1.99,2.256,3.615,3.901,4.877
		c1.645,1.264,3.576,2.182,5.797,2.754c2.218,0.574,4.59,0.861,7.114,0.861c1.912,0,3.94-0.229,6.083-0.688
		c2.142-0.459,4.207-1.188,6.197-2.182c1.989-0.994,3.863-2.256,5.624-3.787c1.759-1.529,3.213-3.365,4.361-5.51h0.229
		c-0.154,0.766-0.344,1.627-0.574,2.582c-0.229,0.959-0.344,1.742-0.344,2.354c0,1.303,0.459,2.641,1.377,4.018
		s2.371,2.066,4.361,2.066c0.764,0,1.587-0.041,2.468-0.115c0.878-0.078,1.739-0.23,2.582-0.459l0.689-3.902
		c-0.614,0.154-1.264,0.305-1.951,0.459c-0.689,0.154-1.34,0.229-1.951,0.229c-1.073,0-1.876-0.361-2.41-1.09
		c-0.537-0.727-0.804-1.625-0.804-2.697c0-0.84,0.133-2.008,0.402-3.5c0.267-1.492,0.592-3.117,0.975-4.877
		c0.382-1.76,0.804-3.559,1.263-5.395s0.879-3.518,1.262-5.051c0.076-0.459,0.325-1.529,0.746-3.213
		c0.42-1.682,0.861-3.557,1.32-5.623s0.879-4.15,1.262-6.254C471.945,101.706,472.138,100.005,472.138,98.703L472.138,98.703z
		 M465.481,111.785l-2.065,8.035c-0.844,3.061-1.895,5.967-3.156,8.721s-2.832,5.186-4.705,7.287
		c-1.876,2.107-4.132,3.771-6.771,4.994c-2.64,1.225-5.721,1.836-9.238,1.836c-1.991,0-3.884-0.211-5.682-0.631
		c-1.799-0.42-3.386-1.109-4.763-2.066c-1.377-0.955-2.487-2.197-3.328-3.73c-0.843-1.529-1.263-3.402-1.263-5.623
		c0-3.213,0.65-5.756,1.951-7.631s3.002-3.311,5.107-4.305c2.104-0.992,4.493-1.645,7.173-1.951
		c2.678-0.305,5.394-0.496,8.148-0.574c1.224-0.074,2.734-0.189,4.533-0.344c1.797-0.152,3.576-0.402,5.337-0.746
		c1.759-0.344,3.403-0.764,4.936-1.264c1.528-0.494,2.714-1.164,3.557-2.008H465.481L465.481,111.785z"/>
	<path fill="#0160A8" d="M475.962,145.068h4.36l5.854-27.773c0.688-3.289,1.759-6.637,3.213-10.043
		c1.453-3.403,3.271-6.502,5.452-9.295c2.18-2.792,4.743-5.068,7.688-6.829c2.944-1.759,6.293-2.64,10.043-2.64
		c4.436,0,7.86,1.168,10.271,3.501c2.41,2.335,3.615,5.376,3.615,9.124c0,0.843-0.077,1.836-0.23,2.984
		c-0.153,1.147-0.326,2.276-0.516,3.386c-0.192,1.109-0.384,2.162-0.574,3.156c-0.191,0.996-0.327,1.76-0.402,2.295l-7.229,32.135
		h4.361l7.229-32.25c0.153-0.688,0.325-1.549,0.518-2.582c0.189-1.033,0.382-2.123,0.573-3.27c0.19-1.148,0.345-2.257,0.459-3.329
		c0.114-1.071,0.172-1.951,0.172-2.64c0-2.525-0.458-4.8-1.377-6.829c-0.919-2.026-2.143-3.747-3.673-5.164
		c-1.531-1.415-3.31-2.485-5.337-3.214c-2.028-0.726-4.151-1.09-6.369-1.09c-5.355,0-10.023,1.282-14.002,3.845
		c-3.979,2.564-7.269,6.025-9.869,10.386h-0.229l2.869-12.854h-4.361L475.962,145.068L475.962,145.068z"/>
	<path fill="#0160A8" d="M596.859,63.125h-4.36l-7.919,37.184h-0.229c-0.537-4.895-2.545-8.722-6.025-11.476
		c-3.482-2.755-7.746-4.132-12.796-4.132c-5.356,0-10.043,1.168-14.06,3.501c-4.017,2.334-7.384,5.356-10.099,9.066
		c-2.718,3.712-4.745,7.862-6.083,12.453c-1.339,4.59-2.009,9.105-2.009,13.543c0,3.137,0.46,6.102,1.377,8.893
		c0.919,2.795,2.313,5.262,4.189,7.402c1.874,2.143,4.207,3.828,7.001,5.051c2.792,1.223,6.025,1.836,9.697,1.836
		c5.278,0,9.772-1.32,13.485-3.959c3.71-2.641,6.675-6.256,8.895-10.846l0.229,0.229l-3.099,13.199h4.362L596.859,63.125
		L596.859,63.125z M582.285,105.934c0,3.75-0.557,7.766-1.664,12.049c-1.11,4.287-2.737,8.264-4.878,11.936
		c-2.144,3.674-4.841,6.715-8.091,9.125c-3.254,2.41-6.983,3.615-11.19,3.615c-3.826,0-6.943-0.574-9.354-1.721
		c-2.409-1.148-4.322-2.658-5.737-4.535c-1.417-1.873-2.393-4.033-2.928-6.484c-0.535-2.447-0.803-4.973-0.803-7.574
		c0-3.672,0.611-7.518,1.836-11.533c1.224-4.018,3.041-7.669,5.451-10.96c2.41-3.288,5.375-6.005,8.895-8.148
		c3.519-2.141,7.612-3.213,12.28-3.213c2.525,0,4.8,0.498,6.828,1.491c2.027,0.996,3.73,2.316,5.107,3.96
		c1.378,1.646,2.428,3.52,3.155,5.623C581.921,101.669,582.285,103.792,582.285,105.934L582.285,105.934z"/>
	<polygon fill="#0160A8" points="108.34,77.4 121.423,77.4 123.76,65.78 110.677,65.78 108.34,77.4 	"/>
	<polygon fill="#0160A8" points="94.731,145.068 107.815,145.068 120.095,85.734 107.011,85.734 94.731,145.068 	"/>
	<path fill="#0160A8" d="M62.253,145.068h13.083l10.329-49.58h11.476l1.951-9.755H87.616c0.459-1.759,0.841-3.385,1.148-4.877
		c0.304-1.492,0.783-2.792,1.434-3.902c0.649-1.109,1.567-1.969,2.754-2.583c1.186-0.611,2.888-0.918,5.108-0.918
		c2.065,0,3.747,0.154,5.049,0.459l2.181-9.984c-1.532-0.153-3.099-0.325-4.706-0.517c-1.606-0.19-3.29-0.287-5.049-0.287
		c-3.979,0-7.193,0.536-9.641,1.607c-2.449,1.072-4.4,2.602-5.853,4.591c-1.454,1.99-2.564,4.361-3.328,7.115
		c-0.766,2.754-1.492,5.853-2.18,9.296h-9.756l-1.951,9.755h9.756L62.253,145.068L62.253,145.068z"/>
	<path fill="#0160A8" d="M171.051,103.064c0.075-3.673-0.479-6.732-1.665-9.182c-1.187-2.447-2.831-4.398-4.934-5.853
		c-2.106-1.452-4.573-2.467-7.403-3.041c-2.831-0.574-5.853-0.861-9.066-0.861c-3.061,0-6.045,0.345-8.952,1.033
		c-2.909,0.689-5.509,1.761-7.804,3.214c-2.295,1.454-4.151,3.328-5.566,5.623c-1.417,2.296-2.123,5.05-2.123,8.263
		c0,2.22,0.344,4.133,1.032,5.738c0.689,1.607,1.645,3.004,2.87,4.189c1.223,1.188,2.619,2.201,4.189,3.041
		c1.567,0.844,3.231,1.57,4.992,2.18c2.066,0.768,4.189,1.455,6.369,2.066c2.181,0.615,4.132,1.283,5.853,2.01
		c1.722,0.727,3.137,1.588,4.247,2.582c1.108,0.994,1.664,2.258,1.664,3.787c0,1.684-0.402,3.08-1.205,4.188
		c-0.804,1.111-1.819,1.973-3.041,2.582c-1.225,0.615-2.565,1.055-4.017,1.32c-1.455,0.27-2.869,0.402-4.247,0.402
		c-3.826,0-7-0.783-9.525-2.354c-2.525-1.566-3.712-4.225-3.558-7.975h-12.395c0.077,4.055,0.766,7.4,2.066,10.041
		c1.3,2.641,3.059,4.746,5.279,6.313c2.219,1.568,4.821,2.68,7.804,3.328c2.984,0.648,6.198,0.977,9.641,0.977
		c3.213,0,6.407-0.365,9.583-1.092c3.174-0.727,5.986-1.893,8.435-3.5c2.448-1.607,4.436-3.633,5.968-6.082
		c1.529-2.447,2.295-5.395,2.295-8.838c0-2.371-0.384-4.398-1.147-6.082c-0.766-1.682-1.779-3.137-3.042-4.361
		c-1.262-1.223-2.736-2.256-4.418-3.1c-1.684-0.84-3.406-1.605-5.165-2.295c-2.066-0.764-4.131-1.434-6.197-2.008
		s-3.942-1.186-5.624-1.836c-1.683-0.65-3.041-1.396-4.074-2.239c-1.033-0.841-1.549-1.951-1.549-3.328
		c0-1.452,0.287-2.657,0.861-3.615c0.573-0.956,1.337-1.722,2.295-2.295c0.956-0.574,2.026-0.976,3.213-1.205
		c1.186-0.23,2.428-0.345,3.73-0.345c3.519,0,6.37,0.689,8.55,2.066c2.181,1.377,3.309,3.558,3.386,6.542H171.051L171.051,103.064z"
		/>
	<path fill="#0160A8" d="M168.296,145.068h13.084l6.656-32.135c0.534-2.447,1.357-4.801,2.467-7.059
		c1.109-2.255,2.428-4.149,3.96-5.68c1.607-1.607,3.423-2.965,5.451-4.075c2.027-1.108,4.342-1.664,6.944-1.664
		c2.37,0,4.189,0.345,5.451,1.033c1.262,0.689,2.161,1.512,2.697,2.468c0.534,0.957,0.821,1.913,0.861,2.869
		c0.037,0.957,0.057,1.664,0.057,2.123c0,0.843-0.097,1.721-0.287,2.641c-0.192,0.918-0.402,1.875-0.631,2.867l-7.575,36.611h13.084
		l7.919-37.873c0.229-1.07,0.382-2.295,0.459-3.672c0.075-1.377,0.114-2.6,0.114-3.673c0-4.82-1.397-8.646-4.189-11.476
		c-2.793-2.83-7.172-4.247-13.14-4.247c-3.75,0-7.385,0.919-10.903,2.755c-3.52,1.836-6.389,4.246-8.607,7.23h-0.23l6.427-30.987
		h-13.083L168.296,145.068L168.296,145.068z"/>
	<path fill="#0160A8" d="M286.504,145.068h13.083l5.509-26.281c0.611-2.984,1.452-5.814,2.525-8.494
		c1.07-2.676,2.467-5.049,4.189-7.114c1.721-2.066,3.825-3.691,6.312-4.878c2.485-1.185,5.412-1.779,8.779-1.779
		c0.764,0,1.53,0.04,2.296,0.115c0.764,0.077,1.529,0.192,2.295,0.344l2.754-12.509c-1.072-0.153-2.123-0.248-3.156-0.287
		c-1.032-0.038-2.085-0.058-3.156-0.058c-2.065,0-4.036,0.402-5.91,1.205c-1.876,0.804-3.615,1.837-5.222,3.099
		c-1.607,1.263-3.081,2.697-4.418,4.304c-1.34,1.607-2.468,3.213-3.386,4.82l-0.23-0.23l2.411-11.591h-12.395L286.504,145.068
		L286.504,145.068z"/>
	<path fill="#FFFFFF" d="M659.96,209.4H-0.24V1H0l0,208.039h659V1h0.96V209.4 M660,0H-1v-0.24h661V0"/>
	<path fill="#FFFFFF" d="M660.96,210.4H-1.24V0.5V0H-1v0.26v209.779h661V0h0.96V210.4 M659,1H0V0.76h659V1"/>
	<path fill="#FFFFFF" d="M660,210.039H-1V0.26V0h661V210.039 M-0.24,1v208.4h660.2V1H659V0.76H0V1H-0.24 M-0.74,0.5V1V0.5
		 M-0.5,0.26v0.5V0.26"/>
</g>
</svg>
